<svg width="27" height="27" viewBox="0 0 27 27" fill="none" xmlns="http://www.w3.org/2000/svg">
<path d="M24.4691 10.9449H22.2754L21.5734 5.46052C21.5593 4.79136 21.2935 4.15209 20.8289 3.67025C20.3644 3.18841 19.7352 2.89942 19.067 2.86093H7.94472C7.28262 2.89641 6.65802 3.1794 6.19479 3.65381C5.73156 4.12821 5.46353 4.75937 5.44384 5.42213L4.72539 10.9449H2.53164C2.31346 10.9449 2.10421 11.0316 1.94993 11.1859C1.79566 11.3401 1.70898 11.5494 1.70898 11.7676C1.70898 11.9857 1.79566 12.195 1.94993 12.3493C2.10421 12.5035 2.31346 12.5902 2.53164 12.5902H3.01427L3.90822 21.5517C3.97789 22.2615 4.31001 22.9197 4.83953 23.3975C5.36905 23.8753 6.05785 24.1382 6.77106 24.1348H20.2297C20.9426 24.137 21.6307 23.8736 22.16 23.3961C22.6892 22.9185 23.0217 22.261 23.0926 21.5517L23.9865 12.5902H24.4691C24.6873 12.5902 24.8966 12.5035 25.0508 12.3493C25.2051 12.195 25.2918 11.9857 25.2918 11.7676C25.2918 11.5494 25.2051 11.3401 25.0508 11.1859C24.8966 11.0316 24.6873 10.9449 24.4691 10.9449ZM7.07819 5.60312C7.12755 4.98887 7.51145 4.50624 7.94472 4.50624H19.0561C19.4893 4.50624 19.8732 4.98338 19.9281 5.63054L20.6301 10.9449H6.3707L7.07819 5.60312ZM9.36517 20.0051C9.36517 20.2233 9.2785 20.4325 9.12422 20.5868C8.96994 20.7411 8.7607 20.8277 8.54252 20.8277C8.32433 20.8277 8.11509 20.7411 7.96081 20.5868C7.80653 20.4325 7.71986 20.2233 7.71986 20.0051V15.0143C7.71986 14.7961 7.80653 14.5869 7.96081 14.4326C8.11509 14.2783 8.32433 14.1916 8.54252 14.1916C8.7607 14.1916 8.96994 14.2783 9.12422 14.4326C9.2785 14.5869 9.36517 14.7961 9.36517 15.0143V20.0051ZM14.3011 20.0051C14.3011 20.2233 14.2144 20.4325 14.0602 20.5868C13.9059 20.7411 13.6966 20.8277 13.4785 20.8277C13.2603 20.8277 13.051 20.7411 12.8967 20.5868C12.7425 20.4325 12.6558 20.2233 12.6558 20.0051V15.0143C12.6558 14.7961 12.7425 14.5869 12.8967 14.4326C13.051 14.2783 13.2603 14.1916 13.4785 14.1916C13.6966 14.1916 13.9059 14.2783 14.0602 14.4326C14.2144 14.5869 14.3011 14.7961 14.3011 15.0143V20.0051ZM19.237 20.0051C19.237 20.2233 19.1504 20.4325 18.9961 20.5868C18.8418 20.7411 18.6326 20.8277 18.4144 20.8277C18.1962 20.8277 17.987 20.7411 17.8327 20.5868C17.6784 20.4325 17.5917 20.2233 17.5917 20.0051V15.0143C17.5917 14.7961 17.6784 14.5869 17.8327 14.4326C17.987 14.2783 18.1962 14.1916 18.4144 14.1916C18.6326 14.1916 18.8418 14.2783 18.9961 14.4326C19.1504 14.5869 19.237 14.7961 19.237 15.0143V20.0051Z" fill="#403C3B"/>
</svg>
