<svg xmlns="http://www.w3.org/2000/svg" data-name="Camada 1" viewBox="0 0 100 100" x="0px" y="0px"><path d="M85.64,79.69a51.57,51.57,0,0,1-8.37,11.63,19,19,0,0,1-13.62,6.11,112.17,112.17,0,0,1-30.39-3.05A33.34,33.34,0,0,1,7.54,59.25c.37-5.26,3.37-8.75,8-9.24,5.11-.54,7.21,1.13,8.85,7.14,1,3.6,2.31,7,5.39,9.36,4.75,3.69,11.77,2.89,14.9-1.71,2.64-3.89.6-10-4.37-13.1-3.25-2-6.83-2.47-10.58-2.34-4.83.18-8.33-1.73-10-6.53-1.8-5.32.36-10.1,5.74-11.88A27.55,27.55,0,0,1,38.43,30,20.15,20.15,0,0,1,45,32a24.83,24.83,0,0,1,5.91,4.59,4.48,4.48,0,0,0,1.4,1.13A1.45,1.45,0,0,0,54,37.45a1.73,1.73,0,0,0-.16-2C50.06,29.72,45.53,24.57,41.48,19,38.09,14.4,35.17,8.1,39.05,4.47,43.23.54,49.65,3.09,54,6.91a66.65,66.65,0,0,1,8.75,9.18,46.47,46.47,0,0,1,3.52,5.16c1,1.81,1.73,3.81,2.81,5.62A1.19,1.19,0,0,0,71.26,26c-1.24-5.19-6-16.45,1.49-19.27C77.8,4.84,82.9,9,85.54,13.85a52.81,52.81,0,0,1,6.23,20.5C93.29,49.9,93.24,65.31,85.64,79.69Z"/></svg>
