<?xml version="1.0" encoding="UTF-8"?>
<svg version="1.1" viewBox="0 0 339.39 64.607" xmlns="http://www.w3.org/2000/svg" fill="#096207">
<defs>
<clipPath id="d">
<path transform="translate(-30.315 -145.27)" d="m0 288h288v-288h-288z"/>
</clipPath>
<clipPath id="c">
<path transform="translate(-60.759 -158.54)" d="m0 288h288v-288h-288z"/>
</clipPath>
<clipPath id="b">
<path transform="translate(-90.107 -158.48)" d="m0 288h288v-288h-288z"/>
</clipPath>
<clipPath id="a">
<path transform="translate(-116.85 -158.42)" d="m0 288h288v-288h-288z"/>
</clipPath>
<clipPath id="i">
<path transform="translate(-145.87 -160.35)" d="m0 288h288v-288h-288z"/>
</clipPath>
<clipPath id="h">
<path transform="translate(-162.43 -167.32)" d="m0 288h288v-288h-288z"/>
</clipPath>
<clipPath id="g">
<path transform="translate(-196.64 -132.56)" d="m0 288h288v-288h-288z"/>
</clipPath>
<clipPath id="f">
<path transform="translate(-230.42 -147.83)" d="m0 288h288v-288h-288z"/>
</clipPath>
<clipPath id="e">
<path transform="translate(-244.94 -167.14)" d="m0 288h288v-288h-288z"/>
</clipPath>
</defs>
<g transform="translate(-22.986 -159.63)">
<path transform="matrix(1.3333 0 0 -1.3333 40.419 190.31)" d="m0 0 13.404-0.03-0.121-24.342-8.336 0.019 6e-3 2.667c-2.072-2.13-4.41-3.324-6.81-3.318-7.937 0.017-11.251 9.495-11.218 24.367 0.034 14.873 5.389 23.665 13.992 23.645 6.203-0.013 12.326-5.03 12.699-18.035l-9.871 0.022c-0.116 7.269-1.516 8.339-2.782 8.343-2.335 5e-3 -3.677-3.593-3.7-13.998-0.024-10.404 1.3-14.675 3.636-14.68 1.732-4e-3 2.54 2.461 2.82 8.329l-3.734 9e-3z" clip-path="url(#d)"/>
<path transform="matrix(1.3333 0 0 -1.3333 81.011 172.61)" d="m0 0c-2.335 5e-3 -3.01-3.595-3.034-14-0.023-10.403 0.634-14.673 2.969-14.678 2.268-5e-3 3.011 4.262 3.034 14.665 0.023 10.405-0.702 14.008-2.969 14.013m-0.045 9.67c8.669-0.018 13.384-8.833 13.351-23.706-0.033-14.872-4.789-24.33-13.458-24.312-8.605 0.02-13.252 9.5-13.219 24.371 0.033 14.874 4.722 23.667 13.326 23.647" clip-path="url(#c)"/>
<path transform="matrix(1.3333 0 0 -1.3333 120.14 172.7)" d="m0 0c-2.335 5e-3 -3.01-3.595-3.034-14-0.023-10.403 0.634-14.673 2.969-14.678 2.268-5e-3 3.011 4.262 3.034 14.665 0.023 10.405-0.702 14.008-2.969 14.013m-0.046 9.67c8.67-0.02 13.385-8.833 13.352-23.706-0.033-14.872-4.789-24.332-13.46-24.312-8.603 0.018-13.25 9.5-13.217 24.371 0.033 14.874 4.722 23.665 13.325 23.647" clip-path="url(#b)"/>
<path transform="matrix(1.3333 0 0 -1.3333 155.8 172.78)" d="m0 0-0.065-28.678 1.268-3e-3c2.268-5e-3 3.007 2.927 3.034 14.665 0.023 10.405-0.035 14.006-2.969 14.013zm-9.983 9.025 11.204-0.025c10.67-0.023 13.389-6.832 13.353-23.039-0.04-17.54-2.787-23.669-13.457-23.645l-11.204 0.024z" clip-path="url(#a)"/>
<path transform="matrix(1.3333 0 0 -1.3333 194.5 170.19)" d="m0 0-1.001 2e-3 -0.032-13.54 1.002-2e-3c1.666-5e-3 3.737 0.791 3.748 6.526 0.013 5.803-2.05 7.009-3.717 7.014m-10.989 7.025 10.936-0.023c7.471-0.016 13.131-3.699 13.108-14.036-0.025-11.603-5.698-13.457-13.169-13.44l-0.934 2e-3 -0.043-19.208-10.003 0.021z" clip-path="url(#i)"/>
<path transform="matrix(1.3333 0 0 -1.3333 216.58 160.91)" d="m0 0 10.005-0.022-0.085-38.013 12.671-0.028-0.02-8.671-22.675 0.05z" clip-path="url(#h)"/>
<path transform="matrix(1.3333 0 0 -1.3333 262.18 207.25)" d="m0 0c-3e-3 -1.667 0.594-3.002 1.662-3.004 1.065-3e-3 1.67 1.331 1.673 2.997l0.078 34.681 10.004-0.023-0.079-35.348c-0.014-6.602-5.23-11.992-11.698-11.977-6.469 0.013-11.658 5.428-11.645 12.03l0.08 35.348 10.003-0.023z" clip-path="url(#g)"/>
<path transform="matrix(1.3333 0 0 -1.3333 307.23 186.9)" d="m0 0c-0.118 7.669-0.978 10.339-2.911 10.344-2.335 5e-3 -3.678-3.595-3.701-14-0.023-10.403 1.301-14.673 3.636-14.678 2.001-5e-3 2.743 3.262 2.893 10.997l10.337-0.023c-0.763-12.803-5.382-20.663-13.319-20.644-8.603 0.018-13.917 9.499-13.884 24.371 0.033 14.874 5.389 23.665 13.991 23.647 7.938-0.018 12.456-7.431 13.161-20.037z" clip-path="url(#f)"/>
<path transform="matrix(1.3333 0 0 -1.3333 326.59 161.15)" d="m0 0 10.003-0.022-0.032-14.072 4.835 14.061 10.535-0.023-8.443-18.656 9.941-28.032-10.671 0.023-4.631 16.683-1.609-3.663-0.029-13.005-10.003 0.022z" clip-path="url(#e)"/>
</g>
</svg>
